<svg width="435" height="59" viewBox="0 0 435 59" fill="none" xmlns="http://www.w3.org/2000/svg">
<g filter="url(#filter0_d_106_3)">
<path d="M0.380682 6.55966V1.09091H38.5625V6.55966H22.554V52H16.3892V6.55966H0.380682ZM48.0769 52V1.09091H78.8013V6.55966H54.2417V23.7614H77.2104V29.2301H54.2417V46.5312H79.199V52H48.0769ZM130.879 17H124.714C124.349 15.2268 123.711 13.669 122.8 12.3267C121.905 10.9844 120.811 9.85748 119.519 8.94602C118.243 8.01799 116.826 7.32197 115.268 6.85795C113.71 6.39394 112.086 6.16193 110.396 6.16193C107.313 6.16193 104.521 6.94081 102.019 8.49858C99.5328 10.0563 97.5525 12.3516 96.0776 15.3842C94.6193 18.4169 93.8901 22.1373 93.8901 26.5455C93.8901 30.9536 94.6193 34.674 96.0776 37.7067C97.5525 40.7393 99.5328 43.0346 102.019 44.5923C104.521 46.1501 107.313 46.929 110.396 46.929C112.086 46.929 113.71 46.697 115.268 46.233C116.826 45.7689 118.243 45.0812 119.519 44.1697C120.811 43.2417 121.905 42.1065 122.8 40.7642C123.711 39.4053 124.349 37.8475 124.714 36.0909H130.879C130.415 38.6927 129.57 41.0211 128.343 43.076C127.117 45.1309 125.592 46.8793 123.769 48.321C121.946 49.7462 119.9 50.8317 117.629 51.5774C115.376 52.3232 112.964 52.696 110.396 52.696C106.054 52.696 102.193 51.6354 98.812 49.5142C95.4313 47.393 92.7715 44.3769 90.8326 40.4659C88.8936 36.5549 87.9242 31.9148 87.9242 26.5455C87.9242 21.1761 88.8936 16.536 90.8326 12.625C92.7715 8.71402 95.4313 5.69792 98.812 3.5767C102.193 1.45549 106.054 0.394884 110.396 0.394884C112.964 0.394884 115.376 0.767754 117.629 1.51349C119.9 2.25923 121.946 3.35298 123.769 4.79474C125.592 6.21993 127.117 7.95999 128.343 10.0149C129.57 12.0533 130.415 14.3816 130.879 17ZM140.841 52V1.09091H147.005V23.7614H174.15V1.09091H180.315V52H174.15V29.2301H147.005V52H140.841ZM240.185 13.8182C239.887 11.2992 238.677 9.34375 236.556 7.9517C234.435 6.55966 231.833 5.86363 228.751 5.86363C226.497 5.86363 224.525 6.22822 222.835 6.95738C221.161 7.68655 219.852 8.68916 218.907 9.9652C217.979 11.2412 217.515 12.6913 217.515 14.3153C217.515 15.6742 217.838 16.8426 218.484 17.8203C219.147 18.7815 219.992 19.5852 221.02 20.2315C222.047 20.8613 223.125 21.3833 224.251 21.7976C225.378 22.1953 226.414 22.5185 227.359 22.767L232.529 24.1591C233.855 24.5071 235.33 24.9877 236.954 25.6009C238.594 26.214 240.161 27.0509 241.652 28.1115C243.16 29.1555 244.403 30.4979 245.381 32.1385C246.358 33.7791 246.847 35.7926 246.847 38.179C246.847 40.9299 246.126 43.4157 244.685 45.6364C243.259 47.857 241.171 49.6219 238.42 50.9311C235.686 52.2403 232.363 52.8949 228.452 52.8949C224.807 52.8949 221.65 52.3066 218.982 51.13C216.33 49.9534 214.242 48.3127 212.717 46.2081C211.209 44.1035 210.356 41.6591 210.157 38.875H216.521C216.686 40.7973 217.333 42.3883 218.46 43.6477C219.603 44.8906 221.045 45.8187 222.785 46.4318C224.541 47.0284 226.431 47.3267 228.452 47.3267C230.806 47.3267 232.919 46.9455 234.791 46.1832C236.664 45.4044 238.147 44.3272 239.241 42.9517C240.335 41.5597 240.881 39.9356 240.881 38.0795C240.881 36.3892 240.409 35.0137 239.464 33.9531C238.52 32.8925 237.277 32.0308 235.736 31.3679C234.195 30.705 232.529 30.125 230.739 29.6278L224.475 27.8381C220.498 26.6946 217.349 25.0623 215.029 22.9411C212.709 20.8198 211.549 18.044 211.549 14.6136C211.549 11.7633 212.32 9.27746 213.861 7.15625C215.419 5.01846 217.507 3.36127 220.125 2.18466C222.76 0.991476 225.701 0.394884 228.95 0.394884C232.231 0.394884 235.147 0.983189 237.7 2.1598C240.252 3.31984 242.273 4.91074 243.765 6.93253C245.273 8.95431 246.068 11.2495 246.151 13.8182H240.185ZM254.199 6.55966V1.09091H292.381V6.55966H276.372V52H270.208V6.55966H254.199ZM342.731 26.5455C342.731 31.9148 341.761 36.5549 339.822 40.4659C337.883 44.3769 335.224 47.393 331.843 49.5142C328.462 51.6354 324.601 52.696 320.259 52.696C315.917 52.696 312.056 51.6354 308.675 49.5142C305.295 47.393 302.635 44.3769 300.696 40.4659C298.757 36.5549 297.787 31.9148 297.787 26.5455C297.787 21.1761 298.757 16.536 300.696 12.625C302.635 8.71402 305.295 5.69792 308.675 3.5767C312.056 1.45549 315.917 0.394884 320.259 0.394884C324.601 0.394884 328.462 1.45549 331.843 3.5767C335.224 5.69792 337.883 8.71402 339.822 12.625C341.761 16.536 342.731 21.1761 342.731 26.5455ZM336.765 26.5455C336.765 22.1373 336.027 18.4169 334.552 15.3842C333.094 12.3516 331.114 10.0563 328.611 8.49858C326.126 6.94081 323.341 6.16193 320.259 6.16193C317.177 6.16193 314.384 6.94081 311.882 8.49858C309.396 10.0563 307.416 12.3516 305.941 15.3842C304.483 18.4169 303.753 22.1373 303.753 26.5455C303.753 30.9536 304.483 34.674 305.941 37.7067C307.416 40.7393 309.396 43.0346 311.882 44.5923C314.384 46.1501 317.177 46.929 320.259 46.929C323.341 46.929 326.126 46.1501 328.611 44.5923C331.114 43.0346 333.094 40.7393 334.552 37.7067C336.027 34.674 336.765 30.9536 336.765 26.5455ZM353.096 52V1.09091H370.298C374.275 1.09091 377.54 1.77036 380.092 3.12926C382.644 4.47159 384.533 6.31936 385.76 8.67259C386.986 11.0258 387.599 13.7022 387.599 16.7017C387.599 19.7012 386.986 22.361 385.76 24.6811C384.533 27.0012 382.653 28.8241 380.117 30.1499C377.582 31.459 374.342 32.1136 370.398 32.1136H356.477V26.5455H370.199C372.916 26.5455 375.104 26.1477 376.761 25.3523C378.435 24.5568 379.645 23.4299 380.39 21.9716C381.153 20.4967 381.534 18.7401 381.534 16.7017C381.534 14.6634 381.153 12.8819 380.39 11.3572C379.628 9.83262 378.41 8.65601 376.736 7.82741C375.063 6.98224 372.85 6.55966 370.099 6.55966H359.261V52H353.096ZM377.059 29.1307L389.588 52H382.429L370.099 29.1307H377.059ZM397.872 52V1.09091H428.596V6.55966H404.037V23.7614H427.005V29.2301H404.037V46.5312H428.994V52H397.872Z" fill="white"/>
<path d="M0.380682 6.55966H-0.619318V7.55966H0.380682V6.55966ZM0.380682 1.09091V0.0909076H-0.619318V1.09091H0.380682ZM38.5625 1.09091H39.5625V0.0909076H38.5625V1.09091ZM38.5625 6.55966V7.55966H39.5625V6.55966H38.5625ZM22.554 6.55966V5.55966H21.554V6.55966H22.554ZM22.554 52V53H23.554V52H22.554ZM16.3892 52H15.3892V53H16.3892V52ZM16.3892 6.55966H17.3892V5.55966H16.3892V6.55966ZM1.38068 6.55966V1.09091H-0.619318V6.55966H1.38068ZM0.380682 2.09091H38.5625V0.0909076H0.380682V2.09091ZM37.5625 1.09091V6.55966H39.5625V1.09091H37.5625ZM38.5625 5.55966H22.554V7.55966H38.5625V5.55966ZM21.554 6.55966V52H23.554V6.55966H21.554ZM22.554 51H16.3892V53H22.554V51ZM17.3892 52V6.55966H15.3892V52H17.3892ZM16.3892 5.55966H0.380682V7.55966H16.3892V5.55966ZM48.0769 52H47.0769V53H48.0769V52ZM48.0769 1.09091V0.0909076H47.0769V1.09091H48.0769ZM78.8013 1.09091H79.8013V0.0909076H78.8013V1.09091ZM78.8013 6.55966V7.55966H79.8013V6.55966H78.8013ZM54.2417 6.55966V5.55966H53.2417V6.55966H54.2417ZM54.2417 23.7614H53.2417V24.7614H54.2417V23.7614ZM77.2104 23.7614H78.2104V22.7614H77.2104V23.7614ZM77.2104 29.2301V30.2301H78.2104V29.2301H77.2104ZM54.2417 29.2301V28.2301H53.2417V29.2301H54.2417ZM54.2417 46.5312H53.2417V47.5312H54.2417V46.5312ZM79.199 46.5312H80.199V45.5312H79.199V46.5312ZM79.199 52V53H80.199V52H79.199ZM49.0769 52V1.09091H47.0769V52H49.0769ZM48.0769 2.09091H78.8013V0.0909076H48.0769V2.09091ZM77.8013 1.09091V6.55966H79.8013V1.09091H77.8013ZM78.8013 5.55966H54.2417V7.55966H78.8013V5.55966ZM53.2417 6.55966V23.7614H55.2417V6.55966H53.2417ZM54.2417 24.7614H77.2104V22.7614H54.2417V24.7614ZM76.2104 23.7614V29.2301H78.2104V23.7614H76.2104ZM77.2104 28.2301H54.2417V30.2301H77.2104V28.2301ZM53.2417 29.2301V46.5312H55.2417V29.2301H53.2417ZM54.2417 47.5312H79.199V45.5312H54.2417V47.5312ZM78.199 46.5312V52H80.199V46.5312H78.199ZM79.199 51H48.0769V53H79.199V51ZM130.879 17V18H132.072L131.863 16.8255L130.879 17ZM124.714 17L123.734 17.2014L123.899 18H124.714V17ZM122.8 12.3267L121.968 12.8814L121.973 12.8885L122.8 12.3267ZM119.519 8.94602L118.93 9.75476L118.936 9.75906L118.942 9.76328L119.519 8.94602ZM115.268 6.85795L114.982 7.81634L114.982 7.81634L115.268 6.85795ZM102.019 8.49858L101.49 7.64963L101.488 7.65122L102.019 8.49858ZM96.0776 15.3842L95.1783 14.9469L95.1764 14.9509L96.0776 15.3842ZM96.0776 37.7067L95.1764 38.1401L95.1783 38.144L96.0776 37.7067ZM102.019 44.5923L101.488 45.4397L101.49 45.4413L102.019 44.5923ZM115.268 46.233L114.982 45.2746L114.982 45.2746L115.268 46.233ZM119.519 44.1697L120.1 44.9835L120.102 44.9821L119.519 44.1697ZM122.8 40.7642L121.969 40.2072L121.968 40.2095L122.8 40.7642ZM124.714 36.0909V35.0909H123.9L123.735 35.8877L124.714 36.0909ZM130.879 36.0909L131.863 36.2665L132.073 35.0909H130.879V36.0909ZM128.343 43.076L127.485 42.5635L127.485 42.5635L128.343 43.076ZM123.769 48.321L124.385 49.1088L124.39 49.1054L123.769 48.321ZM117.629 51.5774L117.317 50.6274L117.315 50.628L117.629 51.5774ZM98.812 49.5142L98.2805 50.3613L98.2805 50.3613L98.812 49.5142ZM90.8326 40.4659L91.7285 40.0217L91.7285 40.0217L90.8326 40.4659ZM90.8326 12.625L89.9366 12.1808L90.8326 12.625ZM117.629 1.51349L117.315 2.46287L117.317 2.46355L117.629 1.51349ZM123.769 4.79474L123.149 5.57909L123.153 5.58255L123.769 4.79474ZM128.343 10.0149L127.484 10.5274L127.486 10.5304L128.343 10.0149ZM130.879 16H124.714V18H130.879V16ZM125.693 16.7986C125.305 14.9114 124.621 13.2281 123.627 11.765L121.973 12.8885C122.802 14.1099 123.393 15.5422 123.734 17.2014L125.693 16.7986ZM123.632 11.772C122.67 10.3292 121.49 9.11267 120.095 8.12877L118.942 9.76328C120.132 10.6023 121.14 11.6395 121.968 12.8814L123.632 11.772ZM120.107 8.13729C118.736 7.14057 117.217 6.39496 115.553 5.89957L114.982 7.81634C116.435 8.24898 117.749 8.89542 118.93 9.75476L120.107 8.13729ZM115.553 5.89957C113.899 5.40687 112.179 5.16193 110.396 5.16193V7.16193C111.993 7.16193 113.521 7.38101 114.982 7.81634L115.553 5.89957ZM110.396 5.16193C107.136 5.16193 104.159 5.98851 101.49 7.64963L102.547 9.34752C104.883 7.89311 107.491 7.16193 110.396 7.16193V5.16193ZM101.488 7.65122C98.8205 9.32263 96.7226 11.7715 95.1783 14.9469L96.9769 15.8216C98.3824 12.9316 100.245 10.7901 102.55 9.34594L101.488 7.65122ZM95.1764 14.9509C93.6361 18.1539 92.8901 22.0319 92.8901 26.5455H94.8901C94.8901 22.2427 95.6024 18.6799 96.9788 15.8176L95.1764 14.9509ZM92.8901 26.5455C92.8901 31.059 93.6361 34.937 95.1764 38.14L96.9788 37.2733C95.6024 34.411 94.8901 30.8482 94.8901 26.5455H92.8901ZM95.1783 38.144C96.7226 41.3194 98.8205 43.7683 101.488 45.4397L102.55 43.745C100.245 42.3009 98.3824 40.1593 96.9769 37.2693L95.1783 38.144ZM101.49 45.4413C104.159 47.1024 107.136 47.929 110.396 47.929V45.929C107.491 45.929 104.883 45.1978 102.547 43.7434L101.49 45.4413ZM110.396 47.929C112.179 47.929 113.899 47.684 115.553 47.1913L114.982 45.2746C113.521 45.7099 111.993 45.929 110.396 45.929V47.929ZM115.553 47.1913C117.213 46.6969 118.731 45.9615 120.1 44.9835L118.937 43.356C117.755 44.2009 116.438 44.8409 114.982 45.2746L115.553 47.1913ZM120.102 44.9821C121.494 43.9829 122.671 42.76 123.632 41.3189L121.968 40.2095C121.139 41.4531 120.129 42.5006 118.935 43.3574L120.102 44.9821ZM123.63 41.3212C124.62 39.8452 125.305 38.1649 125.693 36.2941L123.735 35.8877C123.394 37.5301 122.802 38.9654 121.969 40.2072L123.63 41.3212ZM124.714 37.0909H130.879V35.0909H124.714V37.0909ZM129.894 35.9153C129.449 38.4106 128.643 40.6227 127.485 42.5635L129.202 43.5885C130.496 41.4195 131.38 38.9749 131.863 36.2665L129.894 35.9153ZM127.485 42.5635C126.319 44.5173 124.874 46.1726 123.149 47.5367L124.39 49.1054C126.311 47.586 127.915 45.7446 129.202 43.5885L127.485 42.5635ZM123.153 47.5332C121.425 48.8848 119.481 49.9165 117.317 50.6274L117.942 52.5275C120.318 51.7468 122.468 50.6076 124.385 49.1088L123.153 47.5332ZM117.315 50.628C115.171 51.3376 112.866 51.696 110.396 51.696V53.696C113.062 53.696 115.58 53.3087 117.944 52.5268L117.315 50.628ZM110.396 51.696C106.225 51.696 102.551 50.6797 99.3435 48.6671L98.2805 50.3613C101.834 52.5912 105.883 53.696 110.396 53.696V51.696ZM99.3435 48.6671C96.1336 46.6531 93.5934 43.7834 91.7285 40.0217L89.9366 40.9101C91.9496 44.9704 94.729 48.1329 98.2805 50.3613L99.3435 48.6671ZM91.7285 40.0217C89.872 36.2769 88.9242 31.7955 88.9242 26.5455H86.9242C86.9242 32.0341 87.9153 36.8329 89.9366 40.9101L91.7285 40.0217ZM88.9242 26.5455C88.9242 21.2954 89.872 16.814 91.7285 13.0692L89.9366 12.1808C87.9153 16.258 86.9242 21.0568 86.9242 26.5455H88.9242ZM91.7285 13.0692C93.5934 9.30751 96.1336 6.43779 99.3435 4.42377L98.2805 2.72964C94.729 4.95804 91.9496 8.12052 89.9366 12.1808L91.7285 13.0692ZM99.3435 4.42377C102.551 2.41123 106.225 1.39488 110.396 1.39488V-0.605116C105.883 -0.605116 101.834 0.499753 98.2805 2.72964L99.3435 4.42377ZM110.396 1.39488C112.866 1.39488 115.171 1.7533 117.315 2.46287L117.944 0.564114C115.58 -0.217796 113.062 -0.605116 110.396 -0.605116V1.39488ZM117.317 2.46355C119.479 3.17365 121.421 4.21231 123.149 5.57908L124.39 4.01041C122.472 2.49365 120.32 1.34481 117.942 0.563432L117.317 2.46355ZM123.153 5.58255C124.876 6.92912 126.319 8.57474 127.485 10.5274L129.202 9.50246C127.915 7.34524 126.309 5.51074 124.385 4.00694L123.153 5.58255ZM127.486 10.5304C128.643 12.4522 129.449 14.6625 129.894 17.1745L131.863 16.8255C131.381 14.1007 130.497 11.6543 129.2 9.49939L127.486 10.5304ZM140.841 52H139.841V53H140.841V52ZM140.841 1.09091V0.0909076H139.841V1.09091H140.841ZM147.005 1.09091H148.005V0.0909076H147.005V1.09091ZM147.005 23.7614H146.005V24.7614H147.005V23.7614ZM174.15 23.7614V24.7614H175.15V23.7614H174.15ZM174.15 1.09091V0.0909076H173.15V1.09091H174.15ZM180.315 1.09091H181.315V0.0909076H180.315V1.09091ZM180.315 52V53H181.315V52H180.315ZM174.15 52H173.15V53H174.15V52ZM174.15 29.2301H175.15V28.2301H174.15V29.2301ZM147.005 29.2301V28.2301H146.005V29.2301H147.005ZM147.005 52V53H148.005V52H147.005ZM141.841 52V1.09091H139.841V52H141.841ZM140.841 2.09091H147.005V0.0909076H140.841V2.09091ZM146.005 1.09091V23.7614H148.005V1.09091H146.005ZM147.005 24.7614H174.15V22.7614H147.005V24.7614ZM175.15 23.7614V1.09091H173.15V23.7614H175.15ZM174.15 2.09091H180.315V0.0909076H174.15V2.09091ZM179.315 1.09091V52H181.315V1.09091H179.315ZM180.315 51H174.15V53H180.315V51ZM175.15 52V29.2301H173.15V52H175.15ZM174.15 28.2301H147.005V30.2301H174.15V28.2301ZM146.005 29.2301V52H148.005V29.2301H146.005ZM147.005 51H140.841V53H147.005V51ZM240.185 13.8182L239.192 13.9358L239.297 14.8182H240.185V13.8182ZM236.556 7.9517L236.007 8.78775L236.007 8.78775L236.556 7.9517ZM222.835 6.95738L222.438 6.03917L222.435 6.0406L222.835 6.95738ZM218.907 9.9652L218.103 9.3702L218.098 9.37703L218.907 9.9652ZM218.484 17.8203L217.65 18.3717L217.656 18.3799L217.661 18.388L218.484 17.8203ZM221.02 20.2315L220.487 21.0781L220.497 21.0841L221.02 20.2315ZM224.251 21.7976L223.906 22.7362L223.919 22.7406L224.251 21.7976ZM227.359 22.767L227.619 21.8014L227.613 21.8L227.359 22.767ZM232.529 24.1591L232.269 25.1247L232.275 25.1263L232.529 24.1591ZM236.954 25.6009L236.601 26.5364L236.604 26.5376L236.954 25.6009ZM241.652 28.1115L241.072 28.9265L241.083 28.9337L241.652 28.1115ZM245.381 32.1385L246.24 31.6266L246.24 31.6266L245.381 32.1385ZM244.685 45.6364L243.846 45.0918L243.843 45.0962L244.685 45.6364ZM238.42 50.9311L237.991 50.0281L237.989 50.0292L238.42 50.9311ZM218.982 51.13L218.576 52.044L218.578 52.045L218.982 51.13ZM212.717 46.2081L211.904 46.7906L211.907 46.7948L212.717 46.2081ZM210.157 38.875V37.875H209.083L209.16 38.9462L210.157 38.875ZM216.521 38.875L217.517 38.7891L217.438 37.875H216.521V38.875ZM218.46 43.6477L217.714 44.3146L217.724 44.3248L218.46 43.6477ZM222.785 46.4318L222.452 47.375L222.463 47.3787L222.785 46.4318ZM234.791 46.1832L235.168 47.1095L235.175 47.1066L234.791 46.1832ZM239.241 42.9517L240.023 43.5741L240.027 43.5695L239.241 42.9517ZM239.464 33.9531L240.211 33.288L240.211 33.288L239.464 33.9531ZM235.736 31.3679L235.341 32.2865L235.341 32.2865L235.736 31.3679ZM230.739 29.6278L230.465 30.5894L230.472 30.5914L230.739 29.6278ZM224.475 27.8381L224.199 28.7991L224.2 28.7996L224.475 27.8381ZM215.029 22.9411L214.354 23.6791L214.354 23.6791L215.029 22.9411ZM213.861 7.15625L213.053 6.56733L213.052 6.56845L213.861 7.15625ZM220.125 2.18466L220.535 3.0968L220.538 3.09561L220.125 2.18466ZM237.7 2.1598L237.281 3.06794L237.286 3.07017L237.7 2.1598ZM243.765 6.93253L242.96 7.52618L242.963 7.53042L243.765 6.93253ZM246.151 13.8182V14.8182H247.184L247.151 13.7859L246.151 13.8182ZM241.178 13.7006C240.845 10.8882 239.473 8.66974 237.105 7.11566L236.007 8.78775C237.882 10.0178 238.929 11.7103 239.192 13.9358L241.178 13.7006ZM237.105 7.11566C234.788 5.59559 231.986 4.86363 228.751 4.86363V6.86363C231.68 6.86363 234.081 7.52372 236.007 8.78775L237.105 7.11566ZM228.751 4.86363C226.39 4.86363 224.279 5.24539 222.438 6.03917L223.231 7.8756C224.771 7.21105 226.603 6.86363 228.751 6.86363V4.86363ZM222.435 6.0406C220.625 6.82912 219.167 7.93336 218.103 9.37022L219.711 10.5602C220.536 9.44495 221.696 8.54399 223.234 7.87417L222.435 6.0406ZM218.098 9.37703C217.042 10.8293 216.515 12.4866 216.515 14.3153H218.515C218.515 12.896 218.916 11.6532 219.716 10.5534L218.098 9.37703ZM216.515 14.3153C216.515 15.8383 216.879 17.2056 217.65 18.3717L219.319 17.2689C218.797 16.4795 218.515 15.5102 218.515 14.3153H216.515ZM217.661 18.388C218.404 19.4653 219.35 20.3624 220.487 21.078L221.552 19.3851C220.635 18.8081 219.89 18.0977 219.308 17.2526L217.661 18.388ZM220.497 21.0841C221.581 21.7482 222.717 22.299 223.906 22.7362L224.596 20.859C223.532 20.4675 222.514 19.9744 221.542 19.3789L220.497 21.0841ZM223.919 22.7406C225.066 23.1455 226.128 23.4773 227.104 23.7341L227.613 21.8C226.7 21.5597 225.691 21.2451 224.584 20.8546L223.919 22.7406ZM227.099 23.7327L232.269 25.1247L232.789 23.1935L227.619 21.8014L227.099 23.7327ZM232.275 25.1263C233.56 25.4635 235.001 25.9324 236.601 26.5364L237.307 24.6653C235.659 24.0429 234.15 23.5507 232.783 23.1919L232.275 25.1263ZM236.604 26.5376C238.159 27.119 239.649 27.914 241.072 28.9265L242.232 27.2965C240.672 26.1878 239.03 25.3091 237.304 24.6641L236.604 26.5376ZM241.083 28.9337C242.468 29.8929 243.614 31.1276 244.522 32.6504L246.24 31.6266C245.192 29.8682 243.852 28.4182 242.221 27.2893L241.083 28.9337ZM244.522 32.6504C245.387 34.102 245.847 35.9283 245.847 38.179H247.847C247.847 35.6569 247.33 33.4563 246.24 31.6266L244.522 32.6504ZM245.847 38.179C245.847 40.7446 245.178 43.0398 243.846 45.0918L245.523 46.1809C247.075 43.7916 247.847 41.1153 247.847 38.179H245.847ZM243.843 45.0962C242.533 47.1369 240.6 48.7865 237.991 50.0281L238.85 51.8341C241.743 50.4574 243.986 48.5772 245.526 46.1765L243.843 45.0962ZM237.989 50.0292C235.422 51.2579 232.256 51.8949 228.452 51.8949V53.8949C232.471 53.8949 235.95 53.2227 238.852 51.8331L237.989 50.0292ZM228.452 51.8949C224.912 51.8949 221.898 51.3234 219.385 50.215L218.578 52.045C221.401 53.2898 224.701 53.8949 228.452 53.8949V51.8949ZM219.387 50.2159C216.878 49.1024 214.937 47.5671 213.527 45.6214L211.907 46.7948C213.547 49.0584 215.782 50.8044 218.576 52.044L219.387 50.2159ZM213.53 45.6256C212.138 43.6828 211.341 41.4186 211.154 38.8038L209.16 38.9462C209.37 41.8996 210.28 44.5241 211.904 46.7905L213.53 45.6256ZM210.157 39.875H216.521V37.875H210.157V39.875ZM215.524 38.9609C215.706 41.067 216.423 42.8714 217.714 44.3145L219.205 42.9809C218.242 41.9052 217.667 40.5277 217.517 38.7891L215.524 38.9609ZM217.724 44.3248C218.988 45.6989 220.573 46.7126 222.452 47.375L223.117 45.4887C221.517 44.9247 220.218 44.0823 219.195 42.9707L217.724 44.3248ZM222.463 47.3787C224.332 48.0135 226.331 48.3267 228.452 48.3267V46.3267C226.53 46.3267 224.751 46.0433 223.106 45.4849L222.463 47.3787ZM228.452 48.3267C230.914 48.3267 233.158 47.9278 235.168 47.1094L234.414 45.257C232.679 45.9633 230.697 46.3267 228.452 46.3267V48.3267ZM235.175 47.1066C237.18 46.2728 238.809 45.1012 240.023 43.5741L238.458 42.3293C237.485 43.5532 236.148 44.5359 234.407 45.2599L235.175 47.1066ZM240.027 43.5695C241.266 41.9923 241.881 40.148 241.881 38.0795H239.881C239.881 39.7232 239.403 41.127 238.454 42.3339L240.027 43.5695ZM241.881 38.0795C241.881 36.1931 241.349 34.5655 240.211 33.288L238.718 34.6182C239.469 35.462 239.881 36.5853 239.881 38.0795H241.881ZM240.211 33.288C239.153 32.1002 237.782 31.1596 236.131 30.4493L235.341 32.2865C236.772 32.902 237.886 33.6849 238.718 34.6182L240.211 33.288ZM236.131 30.4493C234.544 29.7668 232.836 29.1723 231.007 28.6643L230.472 30.5914C232.223 31.0777 233.845 31.6432 235.341 32.2865L236.131 30.4493ZM231.014 28.6663L224.75 26.8765L224.2 28.7996L230.465 30.5894L231.014 28.6663ZM224.751 26.877C220.877 25.7632 217.88 24.1926 215.704 22.203L214.354 23.6791C216.818 25.9319 220.118 27.626 224.199 28.7991L224.751 26.877ZM215.704 22.203C213.611 20.2897 212.549 17.7919 212.549 14.6136H210.549C210.549 18.2962 211.807 21.3499 214.354 23.6791L215.704 22.203ZM212.549 14.6136C212.549 11.955 213.264 9.67935 214.67 7.74405L213.052 6.56845C211.376 8.87557 210.549 11.5715 210.549 14.6136H212.549ZM214.669 7.74517C216.116 5.75976 218.061 4.20839 220.535 3.0968L219.715 1.27252C216.952 2.51415 214.721 4.27716 213.053 6.56733L214.669 7.74517ZM220.538 3.09561C223.028 1.96795 225.826 1.39488 228.95 1.39488V-0.605116C225.577 -0.605116 222.492 0.0150038 219.712 1.2737L220.538 3.09561ZM228.95 1.39488C232.11 1.39488 234.88 1.96117 237.281 3.06793L238.118 1.25167C235.415 0.0052118 232.351 -0.605116 228.95 -0.605116V1.39488ZM237.286 3.07017C239.701 4.168 241.581 5.6569 242.96 7.52617L244.57 6.33888C242.966 4.16459 240.802 2.47167 238.113 1.24943L237.286 3.07017ZM242.963 7.53042C244.347 9.38503 245.075 11.482 245.152 13.8504L247.151 13.7859C247.061 11.0171 246.199 8.52358 244.566 6.33463L242.963 7.53042ZM246.151 12.8182H240.185V14.8182H246.151V12.8182ZM254.199 6.55966H253.199V7.55966H254.199V6.55966ZM254.199 1.09091V0.0909076H253.199V1.09091H254.199ZM292.381 1.09091H293.381V0.0909076H292.381V1.09091ZM292.381 6.55966V7.55966H293.381V6.55966H292.381ZM276.372 6.55966V5.55966H275.372V6.55966H276.372ZM276.372 52V53H277.372V52H276.372ZM270.208 52H269.208V53H270.208V52ZM270.208 6.55966H271.208V5.55966H270.208V6.55966ZM255.199 6.55966V1.09091H253.199V6.55966H255.199ZM254.199 2.09091H292.381V0.0909076H254.199V2.09091ZM291.381 1.09091V6.55966H293.381V1.09091H291.381ZM292.381 5.55966H276.372V7.55966H292.381V5.55966ZM275.372 6.55966V52H277.372V6.55966H275.372ZM276.372 51H270.208V53H276.372V51ZM271.208 52V6.55966H269.208V52H271.208ZM270.208 5.55966H254.199V7.55966H270.208V5.55966ZM339.822 40.4659L338.926 40.0217L338.926 40.0217L339.822 40.4659ZM331.843 49.5142L332.374 50.3613L332.374 50.3613L331.843 49.5142ZM308.675 49.5142L308.144 50.3613L308.144 50.3613L308.675 49.5142ZM300.696 40.4659L301.592 40.0217L301.592 40.0217L300.696 40.4659ZM300.696 12.625L299.8 12.1808L300.696 12.625ZM331.843 3.5767L332.374 2.72964L332.374 2.72964L331.843 3.5767ZM339.822 12.625L338.926 13.0692L338.926 13.0692L339.822 12.625ZM334.552 15.3842L333.651 15.8176L333.653 15.8216L334.552 15.3842ZM328.611 8.49858L328.08 9.34595L328.083 9.34752L328.611 8.49858ZM311.882 8.49858L311.353 7.64963L311.351 7.65122L311.882 8.49858ZM305.941 15.3842L305.042 14.9469L305.04 14.9509L305.941 15.3842ZM305.941 37.7067L305.04 38.1401L305.042 38.144L305.941 37.7067ZM311.882 44.5923L311.351 45.4397L311.353 45.4413L311.882 44.5923ZM328.611 44.5923L328.083 43.7434L328.08 43.745L328.611 44.5923ZM334.552 37.7067L333.653 37.2693L333.651 37.2733L334.552 37.7067ZM341.731 26.5455C341.731 31.7955 340.783 36.2769 338.926 40.0217L340.718 40.9101C342.74 36.8329 343.731 32.0341 343.731 26.5455H341.731ZM338.926 40.0217C337.061 43.7834 334.521 46.6531 331.311 48.6671L332.374 50.3613C335.926 48.1329 338.705 44.9704 340.718 40.9101L338.926 40.0217ZM331.311 48.6671C328.104 50.6797 324.43 51.696 320.259 51.696V53.696C324.772 53.696 328.82 52.5912 332.374 50.3613L331.311 48.6671ZM320.259 51.696C316.088 51.696 312.414 50.6797 309.207 48.6671L308.144 50.3613C311.698 52.5912 315.746 53.696 320.259 53.696V51.696ZM309.207 48.6671C305.997 46.6531 303.457 43.7834 301.592 40.0217L299.8 40.9101C301.813 44.9704 304.592 48.1329 308.144 50.3613L309.207 48.6671ZM301.592 40.0217C299.735 36.2769 298.787 31.7955 298.787 26.5455H296.787C296.787 32.0341 297.779 36.8329 299.8 40.9101L301.592 40.0217ZM298.787 26.5455C298.787 21.2954 299.735 16.814 301.592 13.0692L299.8 12.1808C297.779 16.258 296.787 21.0568 296.787 26.5455H298.787ZM301.592 13.0692C303.457 9.30751 305.997 6.43779 309.207 4.42377L308.144 2.72964C304.592 4.95804 301.813 8.12052 299.8 12.1808L301.592 13.0692ZM309.207 4.42377C312.414 2.41123 316.088 1.39488 320.259 1.39488V-0.605116C315.746 -0.605116 311.698 0.499753 308.144 2.72964L309.207 4.42377ZM320.259 1.39488C324.43 1.39488 328.104 2.41123 331.311 4.42377L332.374 2.72964C328.82 0.499753 324.772 -0.605116 320.259 -0.605116V1.39488ZM331.311 4.42377C334.521 6.43779 337.061 9.30751 338.926 13.0692L340.718 12.1808C338.705 8.12052 335.926 4.95804 332.374 2.72964L331.311 4.42377ZM338.926 13.0692C340.783 16.814 341.731 21.2954 341.731 26.5455H343.731C343.731 21.0568 342.74 16.258 340.718 12.1808L338.926 13.0692ZM337.765 26.5455C337.765 22.0305 337.01 18.151 335.452 14.9469L333.653 15.8216C335.045 18.6828 335.765 22.2441 335.765 26.5455H337.765ZM335.454 14.9509C333.925 11.7719 331.825 9.32137 329.14 7.64963L328.083 9.34752C330.402 10.7913 332.263 12.9312 333.651 15.8176L335.454 14.9509ZM329.142 7.65122C326.489 5.98854 323.519 5.16193 320.259 5.16193V7.16193C323.164 7.16193 325.762 7.89309 328.08 9.34594L329.142 7.65122ZM320.259 5.16193C316.999 5.16193 314.022 5.98851 311.353 7.64963L312.41 9.34752C314.747 7.89311 317.355 7.16193 320.259 7.16193V5.16193ZM311.351 7.65122C308.684 9.32263 306.586 11.7715 305.042 14.9469L306.84 15.8216C308.246 12.9316 310.109 10.7901 312.413 9.34594L311.351 7.65122ZM305.04 14.9509C303.499 18.1539 302.753 22.0319 302.753 26.5455H304.753C304.753 22.2427 305.466 18.6799 306.842 15.8176L305.04 14.9509ZM302.753 26.5455C302.753 31.059 303.499 34.937 305.04 38.14L306.842 37.2733C305.466 34.411 304.753 30.8482 304.753 26.5455H302.753ZM305.042 38.144C306.586 41.3194 308.684 43.7683 311.351 45.4397L312.413 43.745C310.109 42.3009 308.246 40.1593 306.84 37.2693L305.042 38.144ZM311.353 45.4413C314.022 47.1024 316.999 47.929 320.259 47.929V45.929C317.355 45.929 314.747 45.1978 312.41 43.7434L311.353 45.4413ZM320.259 47.929C323.519 47.929 326.489 47.1024 329.142 45.4397L328.08 43.745C325.762 45.1978 323.164 45.929 320.259 45.929V47.929ZM329.14 45.4413C331.825 43.7695 333.925 41.319 335.454 38.14L333.651 37.2733C332.263 40.1597 330.402 42.2996 328.083 43.7434L329.14 45.4413ZM335.452 38.144C337.01 34.9399 337.765 31.0604 337.765 26.5455H335.765C335.765 30.8468 335.045 34.4081 333.653 37.2693L335.452 38.144ZM353.096 52H352.096V53H353.096V52ZM353.096 1.09091V0.0909076H352.096V1.09091H353.096ZM380.092 3.12926L379.622 4.01194L379.627 4.0143L380.092 3.12926ZM385.76 8.67259L384.873 9.13472L384.873 9.13473L385.76 8.67259ZM385.76 24.6811L384.876 24.2138L384.876 24.2138L385.76 24.6811ZM380.117 30.1499L380.576 31.0384L380.58 31.036L380.117 30.1499ZM356.477 32.1136H355.477V33.1136H356.477V32.1136ZM356.477 26.5455V25.5455H355.477V26.5455H356.477ZM376.761 25.3523L376.332 24.4491L376.328 24.4507L376.761 25.3523ZM380.39 21.9716L379.502 21.5124L379.5 21.5163L380.39 21.9716ZM376.736 7.82741L376.286 8.72009L376.293 8.72361L376.736 7.82741ZM359.261 6.55966V5.55966H358.261V6.55966H359.261ZM359.261 52V53H360.261V52H359.261ZM377.059 29.1307L377.937 28.6502L377.652 28.1307H377.059V29.1307ZM389.588 52V53H391.276L390.465 51.5195L389.588 52ZM382.429 52L381.549 52.4746L381.832 53H382.429V52ZM370.099 29.1307V28.1307H368.424L369.219 29.6052L370.099 29.1307ZM354.096 52V1.09091H352.096V52H354.096ZM353.096 2.09091H370.298V0.0909076H353.096V2.09091ZM370.298 2.09091C374.17 2.09091 377.259 2.75353 379.622 4.01193L380.562 2.24659C377.821 0.78719 374.381 0.0909076 370.298 0.0909076V2.09091ZM379.627 4.0143C382.015 5.27047 383.749 6.97783 384.873 9.13472L386.647 8.21045C385.318 5.6609 383.274 3.67271 380.558 2.24422L379.627 4.0143ZM384.873 9.13473C386.016 11.3276 386.599 13.8419 386.599 16.7017H388.599C388.599 13.5625 387.956 10.724 386.647 8.21045L384.873 9.13473ZM386.599 16.7017C386.599 19.5618 386.016 22.0572 384.876 24.2138L386.644 25.1484C387.957 22.6649 388.599 19.8406 388.599 16.7017H386.599ZM384.876 24.2138C383.753 26.3387 382.027 28.0229 379.654 29.2637L380.58 31.036C383.278 29.6253 385.314 27.6637 386.644 25.1484L384.876 24.2138ZM379.658 29.2613C377.308 30.4747 374.24 31.1136 370.398 31.1136V33.1136C374.444 33.1136 377.855 32.4434 380.576 31.0384L379.658 29.2613ZM370.398 31.1136H356.477V33.1136H370.398V31.1136ZM357.477 32.1136V26.5455H355.477V32.1136H357.477ZM356.477 27.5455H370.199V25.5455H356.477V27.5455ZM370.199 27.5455C373 27.5455 375.353 27.1375 377.194 26.2538L376.328 24.4507C374.855 25.1579 372.833 25.5455 370.199 25.5455V27.5455ZM377.19 26.2555C379.036 25.3786 380.422 24.1066 381.281 22.4269L379.5 21.5163C378.868 22.7532 377.834 23.7351 376.332 24.4491L377.19 26.2555ZM381.279 22.4307C382.129 20.7852 382.534 18.864 382.534 16.7017H380.534C380.534 18.6161 380.176 20.2082 379.502 21.5124L381.279 22.4307ZM382.534 16.7017C382.534 14.5382 382.129 12.5981 381.285 10.91L379.496 11.8045C380.177 13.1656 380.534 14.7885 380.534 16.7017H382.534ZM381.285 10.91C380.416 9.17184 379.029 7.84664 377.18 6.93122L376.293 8.72361C377.791 9.46538 378.84 10.4934 379.496 11.8045L381.285 10.91ZM377.187 6.93476C375.324 5.99382 372.939 5.55966 370.099 5.55966V7.55966C372.761 7.55966 374.801 7.97067 376.286 8.72007L377.187 6.93476ZM370.099 5.55966H359.261V7.55966H370.099V5.55966ZM358.261 6.55966V52H360.261V6.55966H358.261ZM359.261 51H353.096V53H359.261V51ZM376.182 29.6111L388.711 52.4805L390.465 51.5195L377.937 28.6502L376.182 29.6111ZM389.588 51H382.429V53H389.588V51ZM383.309 51.5254L370.979 28.6561L369.219 29.6052L381.549 52.4746L383.309 51.5254ZM370.099 30.1307H377.059V28.1307H370.099V30.1307ZM397.872 52H396.872V53H397.872V52ZM397.872 1.09091V0.0909076H396.872V1.09091H397.872ZM428.596 1.09091H429.596V0.0909076H428.596V1.09091ZM428.596 6.55966V7.55966H429.596V6.55966H428.596ZM404.037 6.55966V5.55966H403.037V6.55966H404.037ZM404.037 23.7614H403.037V24.7614H404.037V23.7614ZM427.005 23.7614H428.005V22.7614H427.005V23.7614ZM427.005 29.2301V30.2301H428.005V29.2301H427.005ZM404.037 29.2301V28.2301H403.037V29.2301H404.037ZM404.037 46.5312H403.037V47.5312H404.037V46.5312ZM428.994 46.5312H429.994V45.5312H428.994V46.5312ZM428.994 52V53H429.994V52H428.994ZM398.872 52V1.09091H396.872V52H398.872ZM397.872 2.09091H428.596V0.0909076H397.872V2.09091ZM427.596 1.09091V6.55966H429.596V1.09091H427.596ZM428.596 5.55966H404.037V7.55966H428.596V5.55966ZM403.037 6.55966V23.7614H405.037V6.55966H403.037ZM404.037 24.7614H427.005V22.7614H404.037V24.7614ZM426.005 23.7614V29.2301H428.005V23.7614H426.005ZM427.005 28.2301H404.037V30.2301H427.005V28.2301ZM403.037 29.2301V46.5312H405.037V29.2301H403.037ZM404.037 47.5312H428.994V45.5312H404.037V47.5312ZM427.994 46.5312V52H429.994V46.5312H427.994ZM428.994 51H397.872V53H428.994V51Z" fill="black"/>
<path d="M0.380682 6.55966H-0.619318V7.55966H0.380682V6.55966ZM0.380682 1.09091V0.0909076H-0.619318V1.09091H0.380682ZM38.5625 1.09091H39.5625V0.0909076H38.5625V1.09091ZM38.5625 6.55966V7.55966H39.5625V6.55966H38.5625ZM22.554 6.55966V5.55966H21.554V6.55966H22.554ZM22.554 52V53H23.554V52H22.554ZM16.3892 52H15.3892V53H16.3892V52ZM16.3892 6.55966H17.3892V5.55966H16.3892V6.55966ZM1.38068 6.55966V1.09091H-0.619318V6.55966H1.38068ZM0.380682 2.09091H38.5625V0.0909076H0.380682V2.09091ZM37.5625 1.09091V6.55966H39.5625V1.09091H37.5625ZM38.5625 5.55966H22.554V7.55966H38.5625V5.55966ZM21.554 6.55966V52H23.554V6.55966H21.554ZM22.554 51H16.3892V53H22.554V51ZM17.3892 52V6.55966H15.3892V52H17.3892ZM16.3892 5.55966H0.380682V7.55966H16.3892V5.55966ZM48.0769 52H47.0769V53H48.0769V52ZM48.0769 1.09091V0.0909076H47.0769V1.09091H48.0769ZM78.8013 1.09091H79.8013V0.0909076H78.8013V1.09091ZM78.8013 6.55966V7.55966H79.8013V6.55966H78.8013ZM54.2417 6.55966V5.55966H53.2417V6.55966H54.2417ZM54.2417 23.7614H53.2417V24.7614H54.2417V23.7614ZM77.2104 23.7614H78.2104V22.7614H77.2104V23.7614ZM77.2104 29.2301V30.2301H78.2104V29.2301H77.2104ZM54.2417 29.2301V28.2301H53.2417V29.2301H54.2417ZM54.2417 46.5312H53.2417V47.5312H54.2417V46.5312ZM79.199 46.5312H80.199V45.5312H79.199V46.5312ZM79.199 52V53H80.199V52H79.199ZM49.0769 52V1.09091H47.0769V52H49.0769ZM48.0769 2.09091H78.8013V0.0909076H48.0769V2.09091ZM77.8013 1.09091V6.55966H79.8013V1.09091H77.8013ZM78.8013 5.55966H54.2417V7.55966H78.8013V5.55966ZM53.2417 6.55966V23.7614H55.2417V6.55966H53.2417ZM54.2417 24.7614H77.2104V22.7614H54.2417V24.7614ZM76.2104 23.7614V29.2301H78.2104V23.7614H76.2104ZM77.2104 28.2301H54.2417V30.2301H77.2104V28.2301ZM53.2417 29.2301V46.5312H55.2417V29.2301H53.2417ZM54.2417 47.5312H79.199V45.5312H54.2417V47.5312ZM78.199 46.5312V52H80.199V46.5312H78.199ZM79.199 51H48.0769V53H79.199V51ZM130.879 17V18H132.072L131.863 16.8255L130.879 17ZM124.714 17L123.734 17.2014L123.899 18H124.714V17ZM122.8 12.3267L121.968 12.8814L121.973 12.8885L122.8 12.3267ZM119.519 8.94602L118.93 9.75476L118.936 9.75906L118.942 9.76328L119.519 8.94602ZM115.268 6.85795L114.982 7.81634L114.982 7.81634L115.268 6.85795ZM102.019 8.49858L101.49 7.64963L101.488 7.65122L102.019 8.49858ZM96.0776 15.3842L95.1783 14.9469L95.1764 14.9509L96.0776 15.3842ZM96.0776 37.7067L95.1764 38.1401L95.1783 38.144L96.0776 37.7067ZM102.019 44.5923L101.488 45.4397L101.49 45.4413L102.019 44.5923ZM115.268 46.233L114.982 45.2746L114.982 45.2746L115.268 46.233ZM119.519 44.1697L120.1 44.9835L120.102 44.9821L119.519 44.1697ZM122.8 40.7642L121.969 40.2072L121.968 40.2095L122.8 40.7642ZM124.714 36.0909V35.0909H123.9L123.735 35.8877L124.714 36.0909ZM130.879 36.0909L131.863 36.2665L132.073 35.0909H130.879V36.0909ZM128.343 43.076L127.485 42.5635L127.485 42.5635L128.343 43.076ZM123.769 48.321L124.385 49.1088L124.39 49.1054L123.769 48.321ZM117.629 51.5774L117.317 50.6274L117.315 50.628L117.629 51.5774ZM98.812 49.5142L98.2805 50.3613L98.2805 50.3613L98.812 49.5142ZM90.8326 40.4659L91.7285 40.0217L91.7285 40.0217L90.8326 40.4659ZM90.8326 12.625L89.9366 12.1808L90.8326 12.625ZM117.629 1.51349L117.315 2.46287L117.317 2.46355L117.629 1.51349ZM123.769 4.79474L123.149 5.57909L123.153 5.58255L123.769 4.79474ZM128.343 10.0149L127.484 10.5274L127.486 10.5304L128.343 10.0149ZM130.879 16H124.714V18H130.879V16ZM125.693 16.7986C125.305 14.9114 124.621 13.2281 123.627 11.765L121.973 12.8885C122.802 14.1099 123.393 15.5422 123.734 17.2014L125.693 16.7986ZM123.632 11.772C122.67 10.3292 121.49 9.11267 120.095 8.12877L118.942 9.76328C120.132 10.6023 121.14 11.6395 121.968 12.8814L123.632 11.772ZM120.107 8.13729C118.736 7.14057 117.217 6.39496 115.553 5.89957L114.982 7.81634C116.435 8.24898 117.749 8.89542 118.93 9.75476L120.107 8.13729ZM115.553 5.89957C113.899 5.40687 112.179 5.16193 110.396 5.16193V7.16193C111.993 7.16193 113.521 7.38101 114.982 7.81634L115.553 5.89957ZM110.396 5.16193C107.136 5.16193 104.159 5.98851 101.49 7.64963L102.547 9.34752C104.883 7.89311 107.491 7.16193 110.396 7.16193V5.16193ZM101.488 7.65122C98.8205 9.32263 96.7226 11.7715 95.1783 14.9469L96.9769 15.8216C98.3824 12.9316 100.245 10.7901 102.55 9.34594L101.488 7.65122ZM95.1764 14.9509C93.6361 18.1539 92.8901 22.0319 92.8901 26.5455H94.8901C94.8901 22.2427 95.6024 18.6799 96.9788 15.8176L95.1764 14.9509ZM92.8901 26.5455C92.8901 31.059 93.6361 34.937 95.1764 38.14L96.9788 37.2733C95.6024 34.411 94.8901 30.8482 94.8901 26.5455H92.8901ZM95.1783 38.144C96.7226 41.3194 98.8205 43.7683 101.488 45.4397L102.55 43.745C100.245 42.3009 98.3824 40.1593 96.9769 37.2693L95.1783 38.144ZM101.49 45.4413C104.159 47.1024 107.136 47.929 110.396 47.929V45.929C107.491 45.929 104.883 45.1978 102.547 43.7434L101.49 45.4413ZM110.396 47.929C112.179 47.929 113.899 47.684 115.553 47.1913L114.982 45.2746C113.521 45.7099 111.993 45.929 110.396 45.929V47.929ZM115.553 47.1913C117.213 46.6969 118.731 45.9615 120.1 44.9835L118.937 43.356C117.755 44.2009 116.438 44.8409 114.982 45.2746L115.553 47.1913ZM120.102 44.9821C121.494 43.9829 122.671 42.76 123.632 41.3189L121.968 40.2095C121.139 41.4531 120.129 42.5006 118.935 43.3574L120.102 44.9821ZM123.63 41.3212C124.62 39.8452 125.305 38.1649 125.693 36.2941L123.735 35.8877C123.394 37.5301 122.802 38.9654 121.969 40.2072L123.63 41.3212ZM124.714 37.0909H130.879V35.0909H124.714V37.0909ZM129.894 35.9153C129.449 38.4106 128.643 40.6227 127.485 42.5635L129.202 43.5885C130.496 41.4195 131.38 38.9749 131.863 36.2665L129.894 35.9153ZM127.485 42.5635C126.319 44.5173 124.874 46.1726 123.149 47.5367L124.39 49.1054C126.311 47.586 127.915 45.7446 129.202 43.5885L127.485 42.5635ZM123.153 47.5332C121.425 48.8848 119.481 49.9165 117.317 50.6274L117.942 52.5275C120.318 51.7468 122.468 50.6076 124.385 49.1088L123.153 47.5332ZM117.315 50.628C115.171 51.3376 112.866 51.696 110.396 51.696V53.696C113.062 53.696 115.58 53.3087 117.944 52.5268L117.315 50.628ZM110.396 51.696C106.225 51.696 102.551 50.6797 99.3435 48.6671L98.2805 50.3613C101.834 52.5912 105.883 53.696 110.396 53.696V51.696ZM99.3435 48.6671C96.1336 46.6531 93.5934 43.7834 91.7285 40.0217L89.9366 40.9101C91.9496 44.9704 94.729 48.1329 98.2805 50.3613L99.3435 48.6671ZM91.7285 40.0217C89.872 36.2769 88.9242 31.7955 88.9242 26.5455H86.9242C86.9242 32.0341 87.9153 36.8329 89.9366 40.9101L91.7285 40.0217ZM88.9242 26.5455C88.9242 21.2954 89.872 16.814 91.7285 13.0692L89.9366 12.1808C87.9153 16.258 86.9242 21.0568 86.9242 26.5455H88.9242ZM91.7285 13.0692C93.5934 9.30751 96.1336 6.43779 99.3435 4.42377L98.2805 2.72964C94.729 4.95804 91.9496 8.12052 89.9366 12.1808L91.7285 13.0692ZM99.3435 4.42377C102.551 2.41123 106.225 1.39488 110.396 1.39488V-0.605116C105.883 -0.605116 101.834 0.499753 98.2805 2.72964L99.3435 4.42377ZM110.396 1.39488C112.866 1.39488 115.171 1.7533 117.315 2.46287L117.944 0.564114C115.58 -0.217796 113.062 -0.605116 110.396 -0.605116V1.39488ZM117.317 2.46355C119.479 3.17365 121.421 4.21231 123.149 5.57908L124.39 4.01041C122.472 2.49365 120.32 1.34481 117.942 0.563432L117.317 2.46355ZM123.153 5.58255C124.876 6.92912 126.319 8.57474 127.485 10.5274L129.202 9.50246C127.915 7.34524 126.309 5.51074 124.385 4.00694L123.153 5.58255ZM127.486 10.5304C128.643 12.4522 129.449 14.6625 129.894 17.1745L131.863 16.8255C131.381 14.1007 130.497 11.6543 129.2 9.49939L127.486 10.5304ZM140.841 52H139.841V53H140.841V52ZM140.841 1.09091V0.0909076H139.841V1.09091H140.841ZM147.005 1.09091H148.005V0.0909076H147.005V1.09091ZM147.005 23.7614H146.005V24.7614H147.005V23.7614ZM174.15 23.7614V24.7614H175.15V23.7614H174.15ZM174.15 1.09091V0.0909076H173.15V1.09091H174.15ZM180.315 1.09091H181.315V0.0909076H180.315V1.09091ZM180.315 52V53H181.315V52H180.315ZM174.15 52H173.15V53H174.15V52ZM174.15 29.2301H175.15V28.2301H174.15V29.2301ZM147.005 29.2301V28.2301H146.005V29.2301H147.005ZM147.005 52V53H148.005V52H147.005ZM141.841 52V1.09091H139.841V52H141.841ZM140.841 2.09091H147.005V0.0909076H140.841V2.09091ZM146.005 1.09091V23.7614H148.005V1.09091H146.005ZM147.005 24.7614H174.15V22.7614H147.005V24.7614ZM175.15 23.7614V1.09091H173.15V23.7614H175.15ZM174.15 2.09091H180.315V0.0909076H174.15V2.09091ZM179.315 1.09091V52H181.315V1.09091H179.315ZM180.315 51H174.15V53H180.315V51ZM175.15 52V29.2301H173.15V52H175.15ZM174.15 28.2301H147.005V30.2301H174.15V28.2301ZM146.005 29.2301V52H148.005V29.2301H146.005ZM147.005 51H140.841V53H147.005V51ZM240.185 13.8182L239.192 13.9358L239.297 14.8182H240.185V13.8182ZM236.556 7.9517L236.007 8.78775L236.007 8.78775L236.556 7.9517ZM222.835 6.95738L222.438 6.03917L222.435 6.0406L222.835 6.95738ZM218.907 9.9652L218.103 9.3702L218.098 9.37703L218.907 9.9652ZM218.484 17.8203L217.65 18.3717L217.656 18.3799L217.661 18.388L218.484 17.8203ZM221.02 20.2315L220.487 21.0781L220.497 21.0841L221.02 20.2315ZM224.251 21.7976L223.906 22.7362L223.919 22.7406L224.251 21.7976ZM227.359 22.767L227.619 21.8014L227.613 21.8L227.359 22.767ZM232.529 24.1591L232.269 25.1247L232.275 25.1263L232.529 24.1591ZM236.954 25.6009L236.601 26.5364L236.604 26.5376L236.954 25.6009ZM241.652 28.1115L241.072 28.9265L241.083 28.9337L241.652 28.1115ZM245.381 32.1385L246.24 31.6266L246.24 31.6266L245.381 32.1385ZM244.685 45.6364L243.846 45.0918L243.843 45.0962L244.685 45.6364ZM238.42 50.9311L237.991 50.0281L237.989 50.0292L238.42 50.9311ZM218.982 51.13L218.576 52.044L218.578 52.045L218.982 51.13ZM212.717 46.2081L211.904 46.7906L211.907 46.7948L212.717 46.2081ZM210.157 38.875V37.875H209.083L209.16 38.9462L210.157 38.875ZM216.521 38.875L217.517 38.7891L217.438 37.875H216.521V38.875ZM218.46 43.6477L217.714 44.3146L217.724 44.3248L218.46 43.6477ZM222.785 46.4318L222.452 47.375L222.463 47.3787L222.785 46.4318ZM234.791 46.1832L235.168 47.1095L235.175 47.1066L234.791 46.1832ZM239.241 42.9517L240.023 43.5741L240.027 43.5695L239.241 42.9517ZM239.464 33.9531L240.211 33.288L240.211 33.288L239.464 33.9531ZM235.736 31.3679L235.341 32.2865L235.341 32.2865L235.736 31.3679ZM230.739 29.6278L230.465 30.5894L230.472 30.5914L230.739 29.6278ZM224.475 27.8381L224.199 28.7991L224.2 28.7996L224.475 27.8381ZM215.029 22.9411L214.354 23.6791L214.354 23.6791L215.029 22.9411ZM213.861 7.15625L213.053 6.56733L213.052 6.56845L213.861 7.15625ZM220.125 2.18466L220.535 3.0968L220.538 3.09561L220.125 2.18466ZM237.7 2.1598L237.281 3.06794L237.286 3.07017L237.7 2.1598ZM243.765 6.93253L242.96 7.52618L242.963 7.53042L243.765 6.93253ZM246.151 13.8182V14.8182H247.184L247.151 13.7859L246.151 13.8182ZM241.178 13.7006C240.845 10.8882 239.473 8.66974 237.105 7.11566L236.007 8.78775C237.882 10.0178 238.929 11.7103 239.192 13.9358L241.178 13.7006ZM237.105 7.11566C234.788 5.59559 231.986 4.86363 228.751 4.86363V6.86363C231.68 6.86363 234.081 7.52372 236.007 8.78775L237.105 7.11566ZM228.751 4.86363C226.39 4.86363 224.279 5.24539 222.438 6.03917L223.231 7.8756C224.771 7.21105 226.603 6.86363 228.751 6.86363V4.86363ZM222.435 6.0406C220.625 6.82912 219.167 7.93336 218.103 9.37022L219.711 10.5602C220.536 9.44495 221.696 8.54399 223.234 7.87417L222.435 6.0406ZM218.098 9.37703C217.042 10.8293 216.515 12.4866 216.515 14.3153H218.515C218.515 12.896 218.916 11.6532 219.716 10.5534L218.098 9.37703ZM216.515 14.3153C216.515 15.8383 216.879 17.2056 217.65 18.3717L219.319 17.2689C218.797 16.4795 218.515 15.5102 218.515 14.3153H216.515ZM217.661 18.388C218.404 19.4653 219.35 20.3624 220.487 21.078L221.552 19.3851C220.635 18.8081 219.89 18.0977 219.308 17.2526L217.661 18.388ZM220.497 21.0841C221.581 21.7482 222.717 22.299 223.906 22.7362L224.596 20.859C223.532 20.4675 222.514 19.9744 221.542 19.3789L220.497 21.0841ZM223.919 22.7406C225.066 23.1455 226.128 23.4773 227.104 23.7341L227.613 21.8C226.7 21.5597 225.691 21.2451 224.584 20.8546L223.919 22.7406ZM227.099 23.7327L232.269 25.1247L232.789 23.1935L227.619 21.8014L227.099 23.7327ZM232.275 25.1263C233.56 25.4635 235.001 25.9324 236.601 26.5364L237.307 24.6653C235.659 24.0429 234.15 23.5507 232.783 23.1919L232.275 25.1263ZM236.604 26.5376C238.159 27.119 239.649 27.914 241.072 28.9265L242.232 27.2965C240.672 26.1878 239.03 25.3091 237.304 24.6641L236.604 26.5376ZM241.083 28.9337C242.468 29.8929 243.614 31.1276 244.522 32.6504L246.24 31.6266C245.192 29.8682 243.852 28.4182 242.221 27.2893L241.083 28.9337ZM244.522 32.6504C245.387 34.102 245.847 35.9283 245.847 38.179H247.847C247.847 35.6569 247.33 33.4563 246.24 31.6266L244.522 32.6504ZM245.847 38.179C245.847 40.7446 245.178 43.0398 243.846 45.0918L245.523 46.1809C247.075 43.7916 247.847 41.1153 247.847 38.179H245.847ZM243.843 45.0962C242.533 47.1369 240.6 48.7865 237.991 50.0281L238.85 51.8341C241.743 50.4574 243.986 48.5772 245.526 46.1765L243.843 45.0962ZM237.989 50.0292C235.422 51.2579 232.256 51.8949 228.452 51.8949V53.8949C232.471 53.8949 235.95 53.2227 238.852 51.8331L237.989 50.0292ZM228.452 51.8949C224.912 51.8949 221.898 51.3234 219.385 50.215L218.578 52.045C221.401 53.2898 224.701 53.8949 228.452 53.8949V51.8949ZM219.387 50.2159C216.878 49.1024 214.937 47.5671 213.527 45.6214L211.907 46.7948C213.547 49.0584 215.782 50.8044 218.576 52.044L219.387 50.2159ZM213.53 45.6256C212.138 43.6828 211.341 41.4186 211.154 38.8038L209.16 38.9462C209.37 41.8996 210.28 44.5241 211.904 46.7905L213.53 45.6256ZM210.157 39.875H216.521V37.875H210.157V39.875ZM215.524 38.9609C215.706 41.067 216.423 42.8714 217.714 44.3145L219.205 42.9809C218.242 41.9052 217.667 40.5277 217.517 38.7891L215.524 38.9609ZM217.724 44.3248C218.988 45.6989 220.573 46.7126 222.452 47.375L223.117 45.4887C221.517 44.9247 220.218 44.0823 219.195 42.9707L217.724 44.3248ZM222.463 47.3787C224.332 48.0135 226.331 48.3267 228.452 48.3267V46.3267C226.53 46.3267 224.751 46.0433 223.106 45.4849L222.463 47.3787ZM228.452 48.3267C230.914 48.3267 233.158 47.9278 235.168 47.1094L234.414 45.257C232.679 45.9633 230.697 46.3267 228.452 46.3267V48.3267ZM235.175 47.1066C237.18 46.2728 238.809 45.1012 240.023 43.5741L238.458 42.3293C237.485 43.5532 236.148 44.5359 234.407 45.2599L235.175 47.1066ZM240.027 43.5695C241.266 41.9923 241.881 40.148 241.881 38.0795H239.881C239.881 39.7232 239.403 41.127 238.454 42.3339L240.027 43.5695ZM241.881 38.0795C241.881 36.1931 241.349 34.5655 240.211 33.288L238.718 34.6182C239.469 35.462 239.881 36.5853 239.881 38.0795H241.881ZM240.211 33.288C239.153 32.1002 237.782 31.1596 236.131 30.4493L235.341 32.2865C236.772 32.902 237.886 33.6849 238.718 34.6182L240.211 33.288ZM236.131 30.4493C234.544 29.7668 232.836 29.1723 231.007 28.6643L230.472 30.5914C232.223 31.0777 233.845 31.6432 235.341 32.2865L236.131 30.4493ZM231.014 28.6663L224.75 26.8765L224.2 28.7996L230.465 30.5894L231.014 28.6663ZM224.751 26.877C220.877 25.7632 217.88 24.1926 215.704 22.203L214.354 23.6791C216.818 25.9319 220.118 27.626 224.199 28.7991L224.751 26.877ZM215.704 22.203C213.611 20.2897 212.549 17.7919 212.549 14.6136H210.549C210.549 18.2962 211.807 21.3499 214.354 23.6791L215.704 22.203ZM212.549 14.6136C212.549 11.955 213.264 9.67935 214.67 7.74405L213.052 6.56845C211.376 8.87557 210.549 11.5715 210.549 14.6136H212.549ZM214.669 7.74517C216.116 5.75976 218.061 4.20839 220.535 3.0968L219.715 1.27252C216.952 2.51415 214.721 4.27716 213.053 6.56733L214.669 7.74517ZM220.538 3.09561C223.028 1.96795 225.826 1.39488 228.95 1.39488V-0.605116C225.577 -0.605116 222.492 0.0150038 219.712 1.2737L220.538 3.09561ZM228.95 1.39488C232.11 1.39488 234.88 1.96117 237.281 3.06793L238.118 1.25167C235.415 0.0052118 232.351 -0.605116 228.95 -0.605116V1.39488ZM237.286 3.07017C239.701 4.168 241.581 5.6569 242.96 7.52617L244.57 6.33888C242.966 4.16459 240.802 2.47167 238.113 1.24943L237.286 3.07017ZM242.963 7.53042C244.347 9.38503 245.075 11.482 245.152 13.8504L247.151 13.7859C247.061 11.0171 246.199 8.52358 244.566 6.33463L242.963 7.53042ZM246.151 12.8182H240.185V14.8182H246.151V12.8182ZM254.199 6.55966H253.199V7.55966H254.199V6.55966ZM254.199 1.09091V0.0909076H253.199V1.09091H254.199ZM292.381 1.09091H293.381V0.0909076H292.381V1.09091ZM292.381 6.55966V7.55966H293.381V6.55966H292.381ZM276.372 6.55966V5.55966H275.372V6.55966H276.372ZM276.372 52V53H277.372V52H276.372ZM270.208 52H269.208V53H270.208V52ZM270.208 6.55966H271.208V5.55966H270.208V6.55966ZM255.199 6.55966V1.09091H253.199V6.55966H255.199ZM254.199 2.09091H292.381V0.0909076H254.199V2.09091ZM291.381 1.09091V6.55966H293.381V1.09091H291.381ZM292.381 5.55966H276.372V7.55966H292.381V5.55966ZM275.372 6.55966V52H277.372V6.55966H275.372ZM276.372 51H270.208V53H276.372V51ZM271.208 52V6.55966H269.208V52H271.208ZM270.208 5.55966H254.199V7.55966H270.208V5.55966ZM339.822 40.4659L338.926 40.0217L338.926 40.0217L339.822 40.4659ZM331.843 49.5142L332.374 50.3613L332.374 50.3613L331.843 49.5142ZM308.675 49.5142L308.144 50.3613L308.144 50.3613L308.675 49.5142ZM300.696 40.4659L301.592 40.0217L301.592 40.0217L300.696 40.4659ZM300.696 12.625L299.8 12.1808L300.696 12.625ZM331.843 3.5767L332.374 2.72964L332.374 2.72964L331.843 3.5767ZM339.822 12.625L338.926 13.0692L338.926 13.0692L339.822 12.625ZM334.552 15.3842L333.651 15.8176L333.653 15.8216L334.552 15.3842ZM328.611 8.49858L328.08 9.34595L328.083 9.34752L328.611 8.49858ZM311.882 8.49858L311.353 7.64963L311.351 7.65122L311.882 8.49858ZM305.941 15.3842L305.042 14.9469L305.04 14.9509L305.941 15.3842ZM305.941 37.7067L305.04 38.1401L305.042 38.144L305.941 37.7067ZM311.882 44.5923L311.351 45.4397L311.353 45.4413L311.882 44.5923ZM328.611 44.5923L328.083 43.7434L328.08 43.745L328.611 44.5923ZM334.552 37.7067L333.653 37.2693L333.651 37.2733L334.552 37.7067ZM341.731 26.5455C341.731 31.7955 340.783 36.2769 338.926 40.0217L340.718 40.9101C342.74 36.8329 343.731 32.0341 343.731 26.5455H341.731ZM338.926 40.0217C337.061 43.7834 334.521 46.6531 331.311 48.6671L332.374 50.3613C335.926 48.1329 338.705 44.9704 340.718 40.9101L338.926 40.0217ZM331.311 48.6671C328.104 50.6797 324.43 51.696 320.259 51.696V53.696C324.772 53.696 328.82 52.5912 332.374 50.3613L331.311 48.6671ZM320.259 51.696C316.088 51.696 312.414 50.6797 309.207 48.6671L308.144 50.3613C311.698 52.5912 315.746 53.696 320.259 53.696V51.696ZM309.207 48.6671C305.997 46.6531 303.457 43.7834 301.592 40.0217L299.8 40.9101C301.813 44.9704 304.592 48.1329 308.144 50.3613L309.207 48.6671ZM301.592 40.0217C299.735 36.2769 298.787 31.7955 298.787 26.5455H296.787C296.787 32.0341 297.779 36.8329 299.8 40.9101L301.592 40.0217ZM298.787 26.5455C298.787 21.2954 299.735 16.814 301.592 13.0692L299.8 12.1808C297.779 16.258 296.787 21.0568 296.787 26.5455H298.787ZM301.592 13.0692C303.457 9.30751 305.997 6.43779 309.207 4.42377L308.144 2.72964C304.592 4.95804 301.813 8.12052 299.8 12.1808L301.592 13.0692ZM309.207 4.42377C312.414 2.41123 316.088 1.39488 320.259 1.39488V-0.605116C315.746 -0.605116 311.698 0.499753 308.144 2.72964L309.207 4.42377ZM320.259 1.39488C324.43 1.39488 328.104 2.41123 331.311 4.42377L332.374 2.72964C328.82 0.499753 324.772 -0.605116 320.259 -0.605116V1.39488ZM331.311 4.42377C334.521 6.43779 337.061 9.30751 338.926 13.0692L340.718 12.1808C338.705 8.12052 335.926 4.95804 332.374 2.72964L331.311 4.42377ZM338.926 13.0692C340.783 16.814 341.731 21.2954 341.731 26.5455H343.731C343.731 21.0568 342.74 16.258 340.718 12.1808L338.926 13.0692ZM337.765 26.5455C337.765 22.0305 337.01 18.151 335.452 14.9469L333.653 15.8216C335.045 18.6828 335.765 22.2441 335.765 26.5455H337.765ZM335.454 14.9509C333.925 11.7719 331.825 9.32137 329.14 7.64963L328.083 9.34752C330.402 10.7913 332.263 12.9312 333.651 15.8176L335.454 14.9509ZM329.142 7.65122C326.489 5.98854 323.519 5.16193 320.259 5.16193V7.16193C323.164 7.16193 325.762 7.89309 328.08 9.34594L329.142 7.65122ZM320.259 5.16193C316.999 5.16193 314.022 5.98851 311.353 7.64963L312.41 9.34752C314.747 7.89311 317.355 7.16193 320.259 7.16193V5.16193ZM311.351 7.65122C308.684 9.32263 306.586 11.7715 305.042 14.9469L306.84 15.8216C308.246 12.9316 310.109 10.7901 312.413 9.34594L311.351 7.65122ZM305.04 14.9509C303.499 18.1539 302.753 22.0319 302.753 26.5455H304.753C304.753 22.2427 305.466 18.6799 306.842 15.8176L305.04 14.9509ZM302.753 26.5455C302.753 31.059 303.499 34.937 305.04 38.14L306.842 37.2733C305.466 34.411 304.753 30.8482 304.753 26.5455H302.753ZM305.042 38.144C306.586 41.3194 308.684 43.7683 311.351 45.4397L312.413 43.745C310.109 42.3009 308.246 40.1593 306.84 37.2693L305.042 38.144ZM311.353 45.4413C314.022 47.1024 316.999 47.929 320.259 47.929V45.929C317.355 45.929 314.747 45.1978 312.41 43.7434L311.353 45.4413ZM320.259 47.929C323.519 47.929 326.489 47.1024 329.142 45.4397L328.08 43.745C325.762 45.1978 323.164 45.929 320.259 45.929V47.929ZM329.14 45.4413C331.825 43.7695 333.925 41.319 335.454 38.14L333.651 37.2733C332.263 40.1597 330.402 42.2996 328.083 43.7434L329.14 45.4413ZM335.452 38.144C337.01 34.9399 337.765 31.0604 337.765 26.5455H335.765C335.765 30.8468 335.045 34.4081 333.653 37.2693L335.452 38.144ZM353.096 52H352.096V53H353.096V52ZM353.096 1.09091V0.0909076H352.096V1.09091H353.096ZM380.092 3.12926L379.622 4.01194L379.627 4.0143L380.092 3.12926ZM385.76 8.67259L384.873 9.13472L384.873 9.13473L385.76 8.67259ZM385.76 24.6811L384.876 24.2138L384.876 24.2138L385.76 24.6811ZM380.117 30.1499L380.576 31.0384L380.58 31.036L380.117 30.1499ZM356.477 32.1136H355.477V33.1136H356.477V32.1136ZM356.477 26.5455V25.5455H355.477V26.5455H356.477ZM376.761 25.3523L376.332 24.4491L376.328 24.4507L376.761 25.3523ZM380.39 21.9716L379.502 21.5124L379.5 21.5163L380.39 21.9716ZM376.736 7.82741L376.286 8.72009L376.293 8.72361L376.736 7.82741ZM359.261 6.55966V5.55966H358.261V6.55966H359.261ZM359.261 52V53H360.261V52H359.261ZM377.059 29.1307L377.937 28.6502L377.652 28.1307H377.059V29.1307ZM389.588 52V53H391.276L390.465 51.5195L389.588 52ZM382.429 52L381.549 52.4746L381.832 53H382.429V52ZM370.099 29.1307V28.1307H368.424L369.219 29.6052L370.099 29.1307ZM354.096 52V1.09091H352.096V52H354.096ZM353.096 2.09091H370.298V0.0909076H353.096V2.09091ZM370.298 2.09091C374.17 2.09091 377.259 2.75353 379.622 4.01193L380.562 2.24659C377.821 0.78719 374.381 0.0909076 370.298 0.0909076V2.09091ZM379.627 4.0143C382.015 5.27047 383.749 6.97783 384.873 9.13472L386.647 8.21045C385.318 5.6609 383.274 3.67271 380.558 2.24422L379.627 4.0143ZM384.873 9.13473C386.016 11.3276 386.599 13.8419 386.599 16.7017H388.599C388.599 13.5625 387.956 10.724 386.647 8.21045L384.873 9.13473ZM386.599 16.7017C386.599 19.5618 386.016 22.0572 384.876 24.2138L386.644 25.1484C387.957 22.6649 388.599 19.8406 388.599 16.7017H386.599ZM384.876 24.2138C383.753 26.3387 382.027 28.0229 379.654 29.2637L380.58 31.036C383.278 29.6253 385.314 27.6637 386.644 25.1484L384.876 24.2138ZM379.658 29.2613C377.308 30.4747 374.24 31.1136 370.398 31.1136V33.1136C374.444 33.1136 377.855 32.4434 380.576 31.0384L379.658 29.2613ZM370.398 31.1136H356.477V33.1136H370.398V31.1136ZM357.477 32.1136V26.5455H355.477V32.1136H357.477ZM356.477 27.5455H370.199V25.5455H356.477V27.5455ZM370.199 27.5455C373 27.5455 375.353 27.1375 377.194 26.2538L376.328 24.4507C374.855 25.1579 372.833 25.5455 370.199 25.5455V27.5455ZM377.19 26.2555C379.036 25.3786 380.422 24.1066 381.281 22.4269L379.5 21.5163C378.868 22.7532 377.834 23.7351 376.332 24.4491L377.19 26.2555ZM381.279 22.4307C382.129 20.7852 382.534 18.864 382.534 16.7017H380.534C380.534 18.6161 380.176 20.2082 379.502 21.5124L381.279 22.4307ZM382.534 16.7017C382.534 14.5382 382.129 12.5981 381.285 10.91L379.496 11.8045C380.177 13.1656 380.534 14.7885 380.534 16.7017H382.534ZM381.285 10.91C380.416 9.17184 379.029 7.84664 377.18 6.93122L376.293 8.72361C377.791 9.46538 378.84 10.4934 379.496 11.8045L381.285 10.91ZM377.187 6.93476C375.324 5.99382 372.939 5.55966 370.099 5.55966V7.55966C372.761 7.55966 374.801 7.97067 376.286 8.72007L377.187 6.93476ZM370.099 5.55966H359.261V7.55966H370.099V5.55966ZM358.261 6.55966V52H360.261V6.55966H358.261ZM359.261 51H353.096V53H359.261V51ZM376.182 29.6111L388.711 52.4805L390.465 51.5195L377.937 28.6502L376.182 29.6111ZM389.588 51H382.429V53H389.588V51ZM383.309 51.5254L370.979 28.6561L369.219 29.6052L381.549 52.4746L383.309 51.5254ZM370.099 30.1307H377.059V28.1307H370.099V30.1307ZM397.872 52H396.872V53H397.872V52ZM397.872 1.09091V0.0909076H396.872V1.09091H397.872ZM428.596 1.09091H429.596V0.0909076H428.596V1.09091ZM428.596 6.55966V7.55966H429.596V6.55966H428.596ZM404.037 6.55966V5.55966H403.037V6.55966H404.037ZM404.037 23.7614H403.037V24.7614H404.037V23.7614ZM427.005 23.7614H428.005V22.7614H427.005V23.7614ZM427.005 29.2301V30.2301H428.005V29.2301H427.005ZM404.037 29.2301V28.2301H403.037V29.2301H404.037ZM404.037 46.5312H403.037V47.5312H404.037V46.5312ZM428.994 46.5312H429.994V45.5312H428.994V46.5312ZM428.994 52V53H429.994V52H428.994ZM398.872 52V1.09091H396.872V52H398.872ZM397.872 2.09091H428.596V0.0909076H397.872V2.09091ZM427.596 1.09091V6.55966H429.596V1.09091H427.596ZM428.596 5.55966H404.037V7.55966H428.596V5.55966ZM403.037 6.55966V23.7614H405.037V6.55966H403.037ZM404.037 24.7614H427.005V22.7614H404.037V24.7614ZM426.005 23.7614V29.2301H428.005V23.7614H426.005ZM427.005 28.2301H404.037V30.2301H427.005V28.2301ZM403.037 29.2301V46.5312H405.037V29.2301H403.037ZM404.037 47.5312H428.994V45.5312H404.037V47.5312ZM427.994 46.5312V52H429.994V46.5312H427.994ZM428.994 51H397.872V53H428.994V51Z" fill="black" fill-opacity="0.2"/>
</g>
<defs>
<filter id="filter0_d_106_3" x="0.380676" y="0.394897" width="434.613" height="58.5" filterUnits="userSpaceOnUse" color-interpolation-filters="sRGB">
<feFlood flood-opacity="0" result="BackgroundImageFix"/>
<feColorMatrix in="SourceAlpha" type="matrix" values="0 0 0 0 0 0 0 0 0 0 0 0 0 0 0 0 0 0 127 0" result="hardAlpha"/>
<feOffset dx="4" dy="4"/>
<feGaussianBlur stdDeviation="1"/>
<feComposite in2="hardAlpha" operator="out"/>
<feColorMatrix type="matrix" values="0 0 0 0 1 0 0 0 0 1 0 0 0 0 1 0 0 0 0.25 0"/>
<feBlend mode="normal" in2="BackgroundImageFix" result="effect1_dropShadow_106_3"/>
<feBlend mode="normal" in="SourceGraphic" in2="effect1_dropShadow_106_3" result="shape"/>
</filter>
</defs>
</svg>
