<svg width="267" height="506" viewBox="0 0 267 506" fill="none" xmlns="http://www.w3.org/2000/svg">
<path d="M259.846 157.885H266.073C266.405 157.885 266.672 158.136 266.672 158.449V216.876C266.672 217.189 266.405 217.441 266.073 217.441H259.846C259.514 217.441 259.247 217.189 259.247 216.876V158.449C259.247 158.136 259.514 157.885 259.846 157.885Z" fill="#12284A"/>
<path d="M259.846 158.618H266.073C266.405 158.618 266.672 158.87 266.672 159.182V216.369C266.672 216.681 266.405 216.933 266.073 216.933H259.846C259.514 216.933 259.247 216.681 259.247 216.369V159.182C259.247 158.87 259.514 158.618 259.846 158.618Z" fill="url(#paint0_linear_2_3)"/>
<path d="M0.926509 144.215H7.15389C7.48563 144.215 7.75267 144.466 7.75267 144.779V180.862C7.75267 181.175 7.48552 181.426 7.15389 181.426H0.926509C0.594773 181.426 0.327728 181.175 0.327728 180.862V144.779C0.327728 144.466 0.594885 144.215 0.926509 144.215V144.215Z" fill="#12284A"/>
<path d="M0.926509 144.948H7.15389C7.48563 144.948 7.75267 145.2 7.75267 145.513V180.354C7.75267 180.667 7.48552 180.918 7.15389 180.918H0.926509C0.594773 180.918 0.327728 180.667 0.327728 180.354V145.513C0.327728 145.2 0.594885 144.948 0.926509 144.948Z" fill="url(#paint1_linear_2_3)"/>
<path d="M0.926509 192.761H7.15389C7.48563 192.761 7.75267 193.013 7.75267 193.325V229.408C7.75267 229.721 7.48552 229.972 7.15389 229.972H0.926509C0.594773 229.972 0.327728 229.721 0.327728 229.408V193.325C0.327728 193.012 0.594885 192.761 0.926509 192.761Z" fill="#12284A"/>
<path d="M0.926509 193.494H7.15389C7.48563 193.494 7.75267 193.746 7.75267 194.059V228.9C7.75267 229.213 7.48552 229.465 7.15389 229.465H0.926509C0.594773 229.465 0.327728 229.213 0.327728 228.9V194.059C0.327728 193.746 0.594885 193.494 0.926509 193.494Z" fill="url(#paint2_linear_2_3)"/>
<path d="M7.15391 107.36H0.926516C0.595815 107.36 0.327728 107.612 0.327728 107.924V126.132C0.327728 126.443 0.595815 126.696 0.926516 126.696H7.15391C7.48461 126.696 7.7527 126.443 7.7527 126.132V107.924C7.7527 107.612 7.48461 107.36 7.15391 107.36Z" fill="#12284A"/>
<path d="M7.15391 108.093H0.926516C0.595815 108.093 0.327728 108.346 0.327728 108.658V125.624C0.327728 125.935 0.595815 126.188 0.926516 126.188H7.15391C7.48461 126.188 7.7527 125.935 7.7527 125.624V108.658C7.7527 108.346 7.48461 108.093 7.15391 108.093Z" fill="url(#paint3_linear_2_3)"/>
<path d="M223.358 0.580353H43.6417C21.0387 0.580353 2.71533 17.8478 2.71533 39.1483V466.852C2.71533 488.152 21.0387 505.42 43.6417 505.42H223.358C245.961 505.42 264.285 488.152 264.285 466.852V39.1483C264.285 17.8478 245.961 0.580353 223.358 0.580353Z" fill="white" stroke="white" stroke-width="0.999999" stroke-linecap="round" stroke-linejoin="round"/>
<g filter="url(#filter0_f_2_3)">
<path d="M43.6395 1.93326C21.7361 1.93326 4.1489 18.507 4.1489 39.1481V466.853C4.1489 487.494 21.7361 504.067 43.6395 504.067H223.36C245.264 504.067 262.851 487.494 262.851 466.853V39.1481C262.851 18.507 245.264 1.93326 223.36 1.93326H43.6395Z" fill="white"/>
</g>
<path d="M205.637 0.234222V8.52495H211.622V0.234222H205.637ZM2.34738 50.6V56.24H264.653V50.6H2.34738ZM2.34738 450.64V456.279H264.653V450.64H2.34738ZM55.3779 498.627V505.766H61.3628V498.627H55.3779Z" fill="white"/>
<path d="M156.761 3.58762H110.239V7.0798H156.761V3.58762Z" fill="black"/>
<path d="M44.3305 3.76089C22.9563 3.76089 5.74927 19.9764 5.74927 40.1188V465.881C5.74927 486.024 22.9563 502.239 44.3305 502.239H222.67C244.044 502.239 261.251 486.024 261.251 465.881V40.1188C261.251 19.9764 244.044 3.76089 222.67 3.76089H156.761C156.32 3.76076 155.896 3.92673 155.579 4.22365C155.262 4.52057 155.077 4.92512 155.063 5.35162V5.3611H111.937V5.35162C111.923 4.92512 111.738 4.52057 111.421 4.22365C111.104 3.92673 110.68 3.76076 110.239 3.76089H44.3305Z" fill="#B3541E" stroke="#434343" stroke-width="0.500001"/>
<path d="M98.99 22.401C101.313 22.401 103.196 20.6265 103.196 18.4375C103.196 16.2485 101.313 14.474 98.99 14.474C96.6672 14.474 94.7842 16.2485 94.7842 18.4375C94.7842 20.6265 96.6672 22.401 98.99 22.401Z" fill="#161616"/>
<path d="M98.99 20.8822C100.423 20.8822 101.584 19.7877 101.584 18.4375C101.584 17.0873 100.423 15.9927 98.99 15.9927C97.5573 15.9927 96.3958 17.0873 96.3958 18.4375C96.3958 19.7877 97.5573 20.8822 98.99 20.8822Z" fill="#0A0D13"/>
<path d="M98.99 20.3002C100.082 20.3002 100.967 19.4662 100.967 18.4375C100.967 17.4087 100.082 16.5748 98.99 16.5748C97.8984 16.5748 97.0135 17.4087 97.0135 18.4375C97.0135 19.4662 97.8984 20.3002 98.99 20.3002Z" fill="#091427"/>
<g filter="url(#filter1_f_2_3)">
<path fill-rule="evenodd" clip-rule="evenodd" d="M97.6294 17.1913C97.395 17.2145 97.0619 17.5517 97.0372 18.2143C97.0126 18.877 97.321 19.2373 97.4937 19.2373C97.6664 19.2373 98.3819 18.2724 97.6293 17.1913H97.6294Z" fill="#235A91" fill-opacity="0.556075"/>
</g>
<g filter="url(#filter2_f_2_3)">
<path fill-rule="evenodd" clip-rule="evenodd" d="M99.3127 16.9592C98.943 17.0664 98.8719 17.6293 98.8861 17.9509C98.9003 18.2725 99.3838 19.1167 99.9668 18.9291C100.55 18.7415 100.649 18.0447 100.408 17.5757C100.166 17.1066 99.7251 16.7716 99.3127 16.9592V16.9592Z" fill="#235A91" fill-opacity="0.556075"/>
</g>
<path d="M153.366 3.7608H113.634C112.696 3.7608 111.936 4.47728 111.936 5.3611V7.07571C111.936 7.95953 112.696 8.676 113.634 8.676H153.366C154.304 8.676 155.064 7.95953 155.064 7.07571V5.3611C155.064 4.47728 154.304 3.7608 153.366 3.7608Z" fill="black" stroke="#1A1A1A" stroke-width="0.500001" stroke-linecap="round" stroke-linejoin="round"/>
<path d="M114.645 4.76691C113.792 4.76691 113.105 5.41404 113.105 6.21826C113.105 7.02247 113.792 7.66961 114.645 7.66961H152.355C153.208 7.66961 153.895 7.02247 153.895 6.21826C153.895 5.41404 153.208 4.76691 152.355 4.76691H114.645Z" stroke="#292929" stroke-width="0.153809" stroke-linecap="round"/>
<g filter="url(#filter3_f_2_3)">
<path d="M153.895 6.21825C153.895 6.47382 153.738 6.681 153.545 6.681C153.351 6.681 153.194 6.47382 153.194 6.21825C153.194 5.96267 153.351 5.75549 153.545 5.75549C153.738 5.75549 153.895 5.96267 153.895 6.21825Z" fill="white"/>
<path d="M113.105 6.21825C113.105 6.47382 113.262 6.681 113.455 6.681C113.649 6.681 113.806 6.47382 113.806 6.21825C113.806 5.96268 113.649 5.75549 113.455 5.75549C113.262 5.75549 113.105 5.96267 113.105 6.21825Z" fill="white"/>
</g>
<path d="M43.3019 11.7606C27.8284 11.7601 15.2842 23.5807 15.284 38.1626V467.836C15.2835 482.418 27.8278 494.24 43.3019 494.24H133.5H223.698C239.172 494.24 251.717 482.418 251.716 467.836V38.1626C251.716 23.5807 239.172 11.7601 223.698 11.7606H187.734C184.46 11.7606 182.767 12.0796 182.767 16.9741C182.767 21.8686 179.548 30.1155 168.031 30.1155H159.827H107.172H98.9686C87.4519 30.1155 84.2334 21.8686 84.2334 16.9741C84.2334 12.0796 82.54 11.7606 79.2656 11.7606H43.3019Z" fill="url(#paint4_linear_2_3)"/>
<defs>
<filter id="filter0_f_2_3" x="2.21184" y="-0.00379491" width="262.576" height="506.008" filterUnits="userSpaceOnUse" color-interpolation-filters="sRGB">
<feFlood flood-opacity="0" result="BackgroundImageFix"/>
<feBlend mode="normal" in="SourceGraphic" in2="BackgroundImageFix" result="shape"/>
<feGaussianBlur stdDeviation="0.968526" result="effect1_foregroundBlur_2_3"/>
</filter>
<filter id="filter1_f_2_3" x="96.833" y="16.9884" width="1.33689" height="2.45175" filterUnits="userSpaceOnUse" color-interpolation-filters="sRGB">
<feFlood flood-opacity="0" result="BackgroundImageFix"/>
<feBlend mode="normal" in="SourceGraphic" in2="BackgroundImageFix" result="shape"/>
<feGaussianBlur stdDeviation="0.101426" result="effect1_foregroundBlur_2_3"/>
</filter>
<filter id="filter2_f_2_3" x="98.6815" y="16.7034" width="2.05165" height="2.45551" filterUnits="userSpaceOnUse" color-interpolation-filters="sRGB">
<feFlood flood-opacity="0" result="BackgroundImageFix"/>
<feBlend mode="normal" in="SourceGraphic" in2="BackgroundImageFix" result="shape"/>
<feGaussianBlur stdDeviation="0.101426" result="effect1_foregroundBlur_2_3"/>
</filter>
<filter id="filter3_f_2_3" x="109.594" y="2.24489" width="47.8112" height="7.94671" filterUnits="userSpaceOnUse" color-interpolation-filters="sRGB">
<feFlood flood-opacity="0" result="BackgroundImageFix"/>
<feBlend mode="normal" in="SourceGraphic" in2="BackgroundImageFix" result="shape"/>
<feGaussianBlur stdDeviation="1.7553" result="effect1_foregroundBlur_2_3"/>
</filter>
<linearGradient id="paint0_linear_2_3" x1="266.672" y1="158.618" x2="266.672" y2="216.959" gradientUnits="userSpaceOnUse">
<stop stop-color="#B3541E"/>
<stop offset="0.2" stop-color="#B3541E"/>
<stop offset="0.8" stop-color="#B3541E"/>
<stop offset="1" stop-color="#B3541E"/>
</linearGradient>
<linearGradient id="paint1_linear_2_3" x1="7.75268" y1="144.948" x2="7.75268" y2="180.918" gradientUnits="userSpaceOnUse">
<stop stop-color="#B3541E"/>
<stop offset="0.2" stop-color="#B3541E"/>
<stop offset="0.8" stop-color="#B3541E"/>
<stop offset="1" stop-color="#B3541E"/>
</linearGradient>
<linearGradient id="paint2_linear_2_3" x1="7.75268" y1="193.494" x2="7.75268" y2="229.465" gradientUnits="userSpaceOnUse">
<stop stop-color="#B3541E"/>
<stop offset="0.2" stop-color="#B3541E"/>
<stop offset="0.8" stop-color="#B3541E"/>
<stop offset="1" stop-color="#B3541E"/>
</linearGradient>
<linearGradient id="paint3_linear_2_3" x1="7.75269" y1="108.093" x2="7.75269" y2="126.188" gradientUnits="userSpaceOnUse">
<stop stop-color="#B3541E"/>
<stop offset="0.2" stop-color="#B3541E"/>
<stop offset="0.8" stop-color="#B3541E"/>
<stop offset="1" stop-color="#B3541E"/>
</linearGradient>
<linearGradient id="paint4_linear_2_3" x1="180.848" y1="3.76081" x2="180.848" y2="506.662" gradientUnits="userSpaceOnUse">
<stop stop-color="#F9F2F2"/>
<stop offset="0.0001" stop-color="#FDFDFD"/>
<stop offset="0.0002"/>
<stop offset="0.9999"/>
</linearGradient>
</defs>
</svg>
